{
    "asset" : {
        "generator" : "Khronos glTF Blender I/O v3.2.40",
        "version" : "2.0"
    },
    "scene" : 0,
    "scenes" : [
        {
            "name" : "Scene",
            "nodes" : [
                0,
                1,
                2,
                3,
                4
            ]
        }
    ],
    "nodes" : [
        {
            "mesh" : 0,
            "name" : "Cube.001",
            "rotation" : [
                0,
                -0.9990482330322266,
                0,
                0.043619319796562195
            ],
            "scale" : [
                4.838938236236572,
                4.838938236236572,
                4.838938236236572
            ],
            "translation" : [
                -3.722661256790161,
                0.7611569762229919,
                28.20451545715332
            ]
        },
        {
            "mesh" : 1,
            "name" : "Cube.003",
            "scale" : [
                0.817650318145752,
                0.31975996494293213,
                0.09267760813236237
            ],
            "translation" : [
                -2.054988145828247,
                0.768295407295227,
                16.565950393676758
            ]
        },
        {
            "mesh" : 2,
            "name" : "Cube.002",
            "rotation" : [
                0,
                -0.7071068286895752,
                0,
                0.7071067094802856
            ],
            "scale" : [
                0.817650318145752,
                0.31975996494293213,
                0.09267760068178177
            ],
            "translation" : [
                -15.811296463012695,
                0.768295407295227,
                3.4955501556396484
            ]
        },
        {
            "mesh" : 3,
            "name" : "Cube.004",
            "rotation" : [
                0,
                -0.7071068286895752,
                0,
                0.7071067094802856
            ],
            "scale" : [
                0.817650318145752,
                0.31975996494293213,
                0.09267760068178177
            ],
            "translation" : [
                -15.811296463012695,
                0.768295407295227,
                30.62710952758789
            ]
        },
        {
            "mesh" : 4,
            "name" : "Cube.005",
            "scale" : [
                0.817650318145752,
                0.31975996494293213,
                0.09267760813236237
            ],
            "translation" : [
                -28.830644607543945,
                0.768295407295227,
                16.565950393676758
            ]
        }
    ],
    "materials" : [
        {
            "doubleSided" : true,
            "name" : "greypaint",
            "pbrMetallicRoughness" : {
                "baseColorFactor" : [
                    0.12371183186769485,
                    0.12371183186769485,
                    0.12371183186769485,
                    1
                ],
                "metallicFactor" : 0,
                "roughnessFactor" : 0.10000000149011612
            }
        },
        {
            "doubleSided" : true,
            "name" : "artwork",
            "pbrMetallicRoughness" : {
                "baseColorTexture" : {
                    "index" : 0
                },
                "metallicFactor" : 0,
                "roughnessFactor" : 0.5
            }
        }
    ],
    "meshes" : [
        {
            "name" : "Cube.005",
            "primitives" : [
                {
                    "attributes" : {
                        "POSITION" : 0,
                        "NORMAL" : 1,
                        "TEXCOORD_0" : 2
                    },
                    "indices" : 3,
                    "material" : 0
                },
                {
                    "attributes" : {
                        "POSITION" : 4,
                        "NORMAL" : 5,
                        "TEXCOORD_0" : 6
                    },
                    "indices" : 7,
                    "material" : 1
                }
            ]
        },
        {
            "name" : "Cube.007",
            "primitives" : [
                {
                    "attributes" : {
                        "POSITION" : 8,
                        "NORMAL" : 9,
                        "TEXCOORD_0" : 10
                    },
                    "indices" : 11,
                    "material" : 0
                },
                {
                    "attributes" : {
                        "POSITION" : 12,
                        "NORMAL" : 13,
                        "TEXCOORD_0" : 14
                    },
                    "indices" : 15,
                    "material" : 1
                }
            ]
        },
        {
            "name" : "Cube.001",
            "primitives" : [
                {
                    "attributes" : {
                        "POSITION" : 16,
                        "NORMAL" : 17,
                        "TEXCOORD_0" : 18
                    },
                    "indices" : 11,
                    "material" : 0
                },
                {
                    "attributes" : {
                        "POSITION" : 19,
                        "NORMAL" : 20,
                        "TEXCOORD_0" : 21
                    },
                    "indices" : 15,
                    "material" : 1
                }
            ]
        },
        {
            "name" : "Cube.002",
            "primitives" : [
                {
                    "attributes" : {
                        "POSITION" : 22,
                        "NORMAL" : 23,
                        "TEXCOORD_0" : 24
                    },
                    "indices" : 11,
                    "material" : 0
                },
                {
                    "attributes" : {
                        "POSITION" : 25,
                        "NORMAL" : 26,
                        "TEXCOORD_0" : 27
                    },
                    "indices" : 15,
                    "material" : 1
                }
            ]
        },
        {
            "name" : "Cube.003",
            "primitives" : [
                {
                    "attributes" : {
                        "POSITION" : 28,
                        "NORMAL" : 29,
                        "TEXCOORD_0" : 30
                    },
                    "indices" : 11,
                    "material" : 0
                },
                {
                    "attributes" : {
                        "POSITION" : 31,
                        "NORMAL" : 32,
                        "TEXCOORD_0" : 33
                    },
                    "indices" : 15,
                    "material" : 1
                }
            ]
        }
    ],
    "textures" : [
        {
            "sampler" : 0,
            "source" : 0
        }
    ],
    "images" : [
        {
            "mimeType" : "image/png",
            "name" : "landworks flag2x",
            "uri" : "landworks%20flag2x.png"
        }
    ],
    "accessors" : [
        {
            "bufferView" : 0,
            "componentType" : 5126,
            "count" : 1414,
            "max" : [
                0.9539473056793213,
                3.5239546298980713,
                0.12108719348907471
            ],
            "min" : [
                -0.19611918926239014,
                -0.05840659141540527,
                -0.05214790254831314
            ],
            "type" : "VEC3"
        },
        {
            "bufferView" : 1,
            "componentType" : 5126,
            "count" : 1414,
            "type" : "VEC3"
        },
        {
            "bufferView" : 2,
            "componentType" : 5126,
            "count" : 1414,
            "type" : "VEC2"
        },
        {
            "bufferView" : 3,
            "componentType" : 5123,
            "count" : 1458,
            "type" : "SCALAR"
        },
        {
            "bufferView" : 4,
            "componentType" : 5126,
            "count" : 348,
            "max" : [
                0.8105814456939697,
                3.1987998485565186,
                0.04729911684989929
            ],
            "min" : [
                -0.005169510841369629,
                1.0943341255187988,
                -0.04150860756635666
            ],
            "type" : "VEC3"
        },
        {
            "bufferView" : 5,
            "componentType" : 5126,
            "count" : 348,
            "type" : "VEC3"
        },
        {
            "bufferView" : 6,
            "componentType" : 5126,
            "count" : 348,
            "type" : "VEC2"
        },
        {
            "bufferView" : 7,
            "componentType" : 5123,
            "count" : 1782,
            "type" : "SCALAR"
        },
        {
            "bufferView" : 8,
            "componentType" : 5126,
            "count" : 112,
            "max" : [
                1.0781896114349365,
                8.920074462890625,
                2.078411102294922
            ],
            "min" : [
                -1.060300350189209,
                -1,
                -1.8838520050048828
            ],
            "type" : "VEC3"
        },
        {
            "bufferView" : 9,
            "componentType" : 5126,
            "count" : 112,
            "type" : "VEC3"
        },
        {
            "bufferView" : 10,
            "componentType" : 5126,
            "count" : 112,
            "type" : "VEC2"
        },
        {
            "bufferView" : 11,
            "componentType" : 5123,
            "count" : 156,
            "type" : "SCALAR"
        },
        {
            "bufferView" : 12,
            "componentType" : 5126,
            "count" : 12,
            "max" : [
                1.0059645175933838,
                8.764018058776855,
                1.6483118534088135
            ],
            "min" : [
                -0.9880752563476562,
                1.0744590759277344,
                -1.4537525177001953
            ],
            "type" : "VEC3"
        },
        {
            "bufferView" : 13,
            "componentType" : 5126,
            "count" : 12,
            "type" : "VEC3"
        },
        {
            "bufferView" : 14,
            "componentType" : 5126,
            "count" : 12,
            "type" : "VEC2"
        },
        {
            "bufferView" : 15,
            "componentType" : 5123,
            "count" : 12,
            "type" : "SCALAR"
        },
        {
            "bufferView" : 16,
            "componentType" : 5126,
            "count" : 112,
            "max" : [
                1.0781896114349365,
                8.920074462890625,
                2.078411102294922
            ],
            "min" : [
                -1.060300350189209,
                -1,
                -1.8838520050048828
            ],
            "type" : "VEC3"
        },
        {
            "bufferView" : 17,
            "componentType" : 5126,
            "count" : 112,
            "type" : "VEC3"
        },
        {
            "bufferView" : 18,
            "componentType" : 5126,
            "count" : 112,
            "type" : "VEC2"
        },
        {
            "bufferView" : 19,
            "componentType" : 5126,
            "count" : 12,
            "max" : [
                1.0059645175933838,
                8.764018058776855,
                1.6483118534088135
            ],
            "min" : [
                -0.9880752563476562,
                1.0744590759277344,
                -1.4537525177001953
            ],
            "type" : "VEC3"
        },
        {
            "bufferView" : 20,
            "componentType" : 5126,
            "count" : 12,
            "type" : "VEC3"
        },
        {
            "bufferView" : 21,
            "componentType" : 5126,
            "count" : 12,
            "type" : "VEC2"
        },
        {
            "bufferView" : 22,
            "componentType" : 5126,
            "count" : 112,
            "max" : [
                1.0781896114349365,
                8.920074462890625,
                2.078411102294922
            ],
            "min" : [
                -1.060300350189209,
                -1,
                -1.8838520050048828
            ],
            "type" : "VEC3"
        },
        {
            "bufferView" : 23,
            "componentType" : 5126,
            "count" : 112,
            "type" : "VEC3"
        },
        {
            "bufferView" : 24,
            "componentType" : 5126,
            "count" : 112,
            "type" : "VEC2"
        },
        {
            "bufferView" : 25,
            "componentType" : 5126,
            "count" : 12,
            "max" : [
                1.0059645175933838,
                8.764018058776855,
                1.6483118534088135
            ],
            "min" : [
                -0.9880752563476562,
                1.0744590759277344,
                -1.4537525177001953
            ],
            "type" : "VEC3"
        },
        {
            "bufferView" : 26,
            "componentType" : 5126,
            "count" : 12,
            "type" : "VEC3"
        },
        {
            "bufferView" : 27,
            "componentType" : 5126,
            "count" : 12,
            "type" : "VEC2"
        },
        {
            "bufferView" : 28,
            "componentType" : 5126,
            "count" : 112,
            "max" : [
                1.0781896114349365,
                8.920074462890625,
                2.078411102294922
            ],
            "min" : [
                -1.060300350189209,
                -1,
                -1.8838520050048828
            ],
            "type" : "VEC3"
        },
        {
            "bufferView" : 29,
            "componentType" : 5126,
            "count" : 112,
            "type" : "VEC3"
        },
        {
            "bufferView" : 30,
            "componentType" : 5126,
            "count" : 112,
            "type" : "VEC2"
        },
        {
            "bufferView" : 31,
            "componentType" : 5126,
            "count" : 12,
            "max" : [
                1.0059645175933838,
                8.764018058776855,
                1.6483118534088135
            ],
            "min" : [
                -0.9880752563476562,
                1.0744590759277344,
                -1.4537525177001953
            ],
            "type" : "VEC3"
        },
        {
            "bufferView" : 32,
            "componentType" : 5126,
            "count" : 12,
            "type" : "VEC3"
        },
        {
            "bufferView" : 33,
            "componentType" : 5126,
            "count" : 12,
            "type" : "VEC2"
        }
    ],
    "bufferViews" : [
        {
            "buffer" : 0,
            "byteLength" : 16968,
            "byteOffset" : 0
        },
        {
            "buffer" : 0,
            "byteLength" : 16968,
            "byteOffset" : 16968
        },
        {
            "buffer" : 0,
            "byteLength" : 11312,
            "byteOffset" : 33936
        },
        {
            "buffer" : 0,
            "byteLength" : 2916,
            "byteOffset" : 45248
        },
        {
            "buffer" : 0,
            "byteLength" : 4176,
            "byteOffset" : 48164
        },
        {
            "buffer" : 0,
            "byteLength" : 4176,
            "byteOffset" : 52340
        },
        {
            "buffer" : 0,
            "byteLength" : 2784,
            "byteOffset" : 56516
        },
        {
            "buffer" : 0,
            "byteLength" : 3564,
            "byteOffset" : 59300
        },
        {
            "buffer" : 0,
            "byteLength" : 1344,
            "byteOffset" : 62864
        },
        {
            "buffer" : 0,
            "byteLength" : 1344,
            "byteOffset" : 64208
        },
        {
            "buffer" : 0,
            "byteLength" : 896,
            "byteOffset" : 65552
        },
        {
            "buffer" : 0,
            "byteLength" : 312,
            "byteOffset" : 66448
        },
        {
            "buffer" : 0,
            "byteLength" : 144,
            "byteOffset" : 66760
        },
        {
            "buffer" : 0,
            "byteLength" : 144,
            "byteOffset" : 66904
        },
        {
            "buffer" : 0,
            "byteLength" : 96,
            "byteOffset" : 67048
        },
        {
            "buffer" : 0,
            "byteLength" : 24,
            "byteOffset" : 67144
        },
        {
            "buffer" : 0,
            "byteLength" : 1344,
            "byteOffset" : 67168
        },
        {
            "buffer" : 0,
            "byteLength" : 1344,
            "byteOffset" : 68512
        },
        {
            "buffer" : 0,
            "byteLength" : 896,
            "byteOffset" : 69856
        },
        {
            "buffer" : 0,
            "byteLength" : 144,
            "byteOffset" : 70752
        },
        {
            "buffer" : 0,
            "byteLength" : 144,
            "byteOffset" : 70896
        },
        {
            "buffer" : 0,
            "byteLength" : 96,
            "byteOffset" : 71040
        },
        {
            "buffer" : 0,
            "byteLength" : 1344,
            "byteOffset" : 71136
        },
        {
            "buffer" : 0,
            "byteLength" : 1344,
            "byteOffset" : 72480
        },
        {
            "buffer" : 0,
            "byteLength" : 896,
            "byteOffset" : 73824
        },
        {
            "buffer" : 0,
            "byteLength" : 144,
            "byteOffset" : 74720
        },
        {
            "buffer" : 0,
            "byteLength" : 144,
            "byteOffset" : 74864
        },
        {
            "buffer" : 0,
            "byteLength" : 96,
            "byteOffset" : 75008
        },
        {
            "buffer" : 0,
            "byteLength" : 1344,
            "byteOffset" : 75104
        },
        {
            "buffer" : 0,
            "byteLength" : 1344,
            "byteOffset" : 76448
        },
        {
            "buffer" : 0,
            "byteLength" : 896,
            "byteOffset" : 77792
        },
        {
            "buffer" : 0,
            "byteLength" : 144,
            "byteOffset" : 78688
        },
        {
            "buffer" : 0,
            "byteLength" : 144,
            "byteOffset" : 78832
        },
        {
            "buffer" : 0,
            "byteLength" : 96,
            "byteOffset" : 78976
        }
    ],
    "samplers" : [
        {
            "magFilter" : 9729,
            "minFilter" : 9987
        }
    ],
    "buffers" : [
        {
            "byteLength" : 79072,
            "uri" : "untitled.bin"
        }
    ]
}
