{
    "asset" : {
        "generator" : "Khronos glTF Blender I/O v3.2.40",
        "version" : "2.0"
    },
    "scene" : 0,
    "scenes" : [
        {
            "name" : "Scene",
            "nodes" : [
                0
            ]
        }
    ],
    "nodes" : [
        {
            "mesh" : 0,
            "name" : "screens",
            "translation" : [
                -15.814011573791504,
                0,
                15.912221908569336
            ]
        }
    ],
    "animations" : [
        {
            "channels" : [
                {
                    "sampler" : 0,
                    "target" : {
                        "node" : 0,
                        "path" : "translation"
                    }
                },
                {
                    "sampler" : 1,
                    "target" : {
                        "node" : 0,
                        "path" : "rotation"
                    }
                },
                {
                    "sampler" : 2,
                    "target" : {
                        "node" : 0,
                        "path" : "scale"
                    }
                }
            ],
            "name" : "screens",
            "samplers" : [
                {
                    "input" : 8,
                    "interpolation" : "LINEAR",
                    "output" : 9
                },
                {
                    "input" : 8,
                    "interpolation" : "LINEAR",
                    "output" : 10
                },
                {
                    "input" : 8,
                    "interpolation" : "LINEAR",
                    "output" : 11
                }
            ]
        }
    ],
    "materials" : [
        {
            "doubleSided" : true,
            "emissiveFactor" : [
                0.8999999761581421,
                0.8999999761581421,
                0.8999999761581421
            ],
            "emissiveTexture" : {
                "index" : 0
            },
            "name" : "images",
            "pbrMetallicRoughness" : {
                "baseColorTexture" : {
                    "index" : 1
                },
                "metallicFactor" : 0,
                "roughnessFactor" : 0.5
            }
        },
        {
            "doubleSided" : true,
            "emissiveFactor" : [
                0.6000000238418579,
                0.6000000238418579,
                0.6000000238418579
            ],
            "emissiveTexture" : {
                "index" : 2
            },
            "name" : "Material.005",
            "pbrMetallicRoughness" : {
                "baseColorTexture" : {
                    "index" : 3
                },
                "metallicFactor" : 0,
                "roughnessFactor" : 0.5
            }
        }
    ],
    "meshes" : [
        {
            "name" : "Cylinder.010",
            "primitives" : [
                {
                    "attributes" : {
                        "POSITION" : 0,
                        "NORMAL" : 1,
                        "TEXCOORD_0" : 2
                    },
                    "indices" : 3,
                    "material" : 0
                },
                {
                    "attributes" : {
                        "POSITION" : 4,
                        "NORMAL" : 5,
                        "TEXCOORD_0" : 6
                    },
                    "indices" : 7,
                    "material" : 1
                }
            ]
        }
    ],
    "textures" : [
        {
            "sampler" : 0,
            "source" : 0
        },
        {
            "sampler" : 0,
            "source" : 0
        },
        {
            "sampler" : 0,
            "source" : 1
        },
        {
            "sampler" : 0,
            "source" : 1
        }
    ],
    "images" : [
        {
            "mimeType" : "image/png",
            "name" : "decentralnd",
            "uri" : "textures/decentralnd.png"
        },
        {
            "mimeType" : "image/jpeg",
            "name" : "decentraland-divulgacao",
            "uri" : "textures/decentraland-divulgacao.jpg"
        }
    ],
    "accessors" : [
        {
            "bufferView" : 0,
            "componentType" : 5126,
            "count" : 67,
            "max" : [
                10.409632682800293,
                13.654524803161621,
                -6.63918924331665
            ],
            "min" : [
                7.794981479644775,
                9.817282676696777,
                -9.382780075073242
            ],
            "type" : "VEC3"
        },
        {
            "bufferView" : 1,
            "componentType" : 5126,
            "count" : 67,
            "type" : "VEC3"
        },
        {
            "bufferView" : 2,
            "componentType" : 5126,
            "count" : 67,
            "type" : "VEC2"
        },
        {
            "bufferView" : 3,
            "componentType" : 5123,
            "count" : 195,
            "type" : "SCALAR"
        },
        {
            "bufferView" : 4,
            "componentType" : 5126,
            "count" : 32,
            "max" : [
                -5.215322494506836,
                16.96845817565918,
                8.837498664855957
            ],
            "min" : [
                -8.248434066772461,
                11.973755836486816,
                -8.29490852355957
            ],
            "type" : "VEC3"
        },
        {
            "bufferView" : 5,
            "componentType" : 5126,
            "count" : 32,
            "type" : "VEC3"
        },
        {
            "bufferView" : 6,
            "componentType" : 5126,
            "count" : 32,
            "type" : "VEC2"
        },
        {
            "bufferView" : 7,
            "componentType" : 5123,
            "count" : 90,
            "type" : "SCALAR"
        },
        {
            "bufferView" : 8,
            "componentType" : 5126,
            "count" : 251,
            "max" : [
                10.416666666666666
            ],
            "min" : [
                0
            ],
            "type" : "SCALAR"
        },
        {
            "bufferView" : 9,
            "componentType" : 5126,
            "count" : 251,
            "type" : "VEC3"
        },
        {
            "bufferView" : 10,
            "componentType" : 5126,
            "count" : 251,
            "type" : "VEC4"
        },
        {
            "bufferView" : 11,
            "componentType" : 5126,
            "count" : 251,
            "type" : "VEC3"
        }
    ],
    "bufferViews" : [
        {
            "buffer" : 0,
            "byteLength" : 804,
            "byteOffset" : 0
        },
        {
            "buffer" : 0,
            "byteLength" : 804,
            "byteOffset" : 804
        },
        {
            "buffer" : 0,
            "byteLength" : 536,
            "byteOffset" : 1608
        },
        {
            "buffer" : 0,
            "byteLength" : 390,
            "byteOffset" : 2144
        },
        {
            "buffer" : 0,
            "byteLength" : 384,
            "byteOffset" : 2536
        },
        {
            "buffer" : 0,
            "byteLength" : 384,
            "byteOffset" : 2920
        },
        {
            "buffer" : 0,
            "byteLength" : 256,
            "byteOffset" : 3304
        },
        {
            "buffer" : 0,
            "byteLength" : 180,
            "byteOffset" : 3560
        },
        {
            "buffer" : 0,
            "byteLength" : 1004,
            "byteOffset" : 3740
        },
        {
            "buffer" : 0,
            "byteLength" : 3012,
            "byteOffset" : 4744
        },
        {
            "buffer" : 0,
            "byteLength" : 4016,
            "byteOffset" : 7756
        },
        {
            "buffer" : 0,
            "byteLength" : 3012,
            "byteOffset" : 11772
        }
    ],
    "samplers" : [
        {
            "magFilter" : 9729,
            "minFilter" : 9987
        }
    ],
    "buffers" : [
        {
            "byteLength" : 14784,
            "uri" : "screensstamps.bin"
        }
    ]
}
